<?xml version="1.0" standalone="no"?>
<!DOCTYPE svg PUBLIC "-//W3C//DTD SVG 20010904//EN"
 "http://www.w3.org/TR/2001/REC-SVG-20010904/DTD/svg10.dtd">
<svg version="1.0" xmlns="http://www.w3.org/2000/svg"
 width="2000.000000pt" height="1125.000000pt" viewBox="0 0 2000.000000 1125.000000"
 preserveAspectRatio="xMidYMid meet">

<g transform="translate(0.000000,1125.000000) scale(0.100000,-0.100000)"
fill="#000000" stroke="none">
<path d="M19229 9992 c-72 -47 -235 -164 -294 -210 l-29 -23 18 -34 c39 -72
42 -72 144 -1 50 36 100 70 112 76 20 11 21 9 16 -22 -3 -18 -22 -136 -42
-263 -290 -1864 -586 -3066 -958 -3893 -598 -1331 -1354 -1918 -2646 -2056
-246 -27 -470 -36 -870 -36 -609 0 -884 15 -2375 125 -725 53 -932 64 -1521
75 -1084 21 -1789 -30 -2663 -196 -1419 -268 -2916 -795 -4834 -1701 -737
-348 -2675 -1332 -2875 -1459 -61 -40 -71 -57 -51 -93 28 -50 -106 -113 1389
649 1823 929 2902 1416 4060 1832 1525 547 2852 815 4200 847 705 16 1299 -9
2905 -124 933 -66 1061 -73 1595 -81 594 -9 907 8 1300 72 941 151 1572 556
2093 1340 303 457 543 1001 762 1729 201 671 356 1403 571 2695 47 283 89 524
93 535 7 17 19 4 85 -85 42 -58 81 -106 86 -108 14 -5 90 49 90 64 0 7 -47 78
-104 158 -150 208 -170 235 -177 236 -4 0 -40 -22 -80 -48z"/>
</g>
</svg>
